<svg width="44" height="44" viewBox="0 0 44 44" fill="none" xmlns="http://www.w3.org/2000/svg">
<path d="M7.33398 23.8334C10.603 24.2219 13.6462 25.6989 15.974 28.0267C18.3018 30.3545 19.7788 33.3977 20.1673 36.6667C21.7878 35.7325 23.1434 34.4004 24.1057 32.7964C25.0681 31.1925 25.6056 29.3696 25.6673 27.5C28.7457 26.4171 31.4338 24.4457 33.3918 21.8351C35.3498 19.2244 36.4897 16.0918 36.6673 12.8334C36.6673 11.3747 36.0879 9.97574 35.0564 8.94429C34.025 7.91284 32.626 7.33337 31.1673 7.33337C27.9089 7.51104 24.7763 8.65093 22.1656 10.6089C19.555 12.5669 17.5836 15.255 16.5007 18.3334C14.6311 18.3951 12.8082 18.9326 11.2043 19.895C9.6003 20.8573 8.26823 22.2129 7.33398 23.8334" stroke="#3445ED" stroke-width="2.75" stroke-linecap="round" stroke-linejoin="round"/>
<path d="M12.8324 25.6666C10.9243 26.7438 9.38146 28.3664 8.40154 30.3262C7.42163 32.286 7.04935 34.4938 7.33242 36.6666C9.50522 36.9497 11.713 36.5774 13.6729 35.5975C15.6327 34.6176 17.2552 33.0747 18.3324 31.1666" stroke="#3445ED" stroke-width="2.75" stroke-linecap="round" stroke-linejoin="round"/>
<path d="M27.4993 18.3333C28.5119 18.3333 29.3327 17.5125 29.3327 16.5C29.3327 15.4874 28.5119 14.6666 27.4993 14.6666C26.4868 14.6666 25.666 15.4874 25.666 16.5C25.666 17.5125 26.4868 18.3333 27.4993 18.3333Z" fill="#3445ED" stroke="#3445ED" stroke-width="2.75" stroke-linecap="round" stroke-linejoin="round"/>
</svg>
