<svg width="44" height="44" viewBox="0 0 44 44" fill="none" xmlns="http://www.w3.org/2000/svg">
<path d="M36.6667 14.6666H7.33333C6.32081 14.6666 5.5 15.4874 5.5 16.5V20.1666C5.5 21.1791 6.32081 22 7.33333 22H36.6667C37.6792 22 38.5 21.1791 38.5 20.1666V16.5C38.5 15.4874 37.6792 14.6666 36.6667 14.6666Z" stroke="#3445ED" stroke-width="2.75" stroke-linecap="round" stroke-linejoin="round"/>
<path d="M22 14.6666V38.5" stroke="#3445ED" stroke-width="2.75" stroke-linecap="round" stroke-linejoin="round"/>
<path d="M34.8327 22V34.8333C34.8327 35.8058 34.4464 36.7384 33.7587 37.4261C33.0711 38.1137 32.1385 38.5 31.166 38.5H12.8327C11.8602 38.5 10.9276 38.1137 10.24 37.4261C9.55232 36.7384 9.16602 35.8058 9.16602 34.8333V22" stroke="#3445ED" stroke-width="2.75" stroke-linecap="round" stroke-linejoin="round"/>
<path d="M13.7493 14.6666C12.5338 14.6666 11.368 14.1837 10.5084 13.3242C9.6489 12.4646 9.16602 11.2989 9.16602 10.0833C9.16602 8.8677 9.6489 7.70192 10.5084 6.84237C11.368 5.98283 12.5338 5.49995 13.7493 5.49995C15.5179 5.46913 17.2511 6.32726 18.7227 7.96241C20.1943 9.59756 21.3362 11.9339 21.9993 14.6666C22.6625 11.9339 23.8044 9.59756 25.276 7.96241C26.7476 6.32726 28.4808 5.46913 30.2493 5.49995C31.4649 5.49995 32.6307 5.98283 33.4903 6.84237C34.3498 7.70192 34.8327 8.8677 34.8327 10.0833C34.8327 11.2989 34.3498 12.4646 33.4903 13.3242C32.6307 14.1837 31.4649 14.6666 30.2493 14.6666" stroke="#3445ED" stroke-width="2.75" stroke-linecap="round" stroke-linejoin="round"/>
</svg>
