<svg width="44" height="44" viewBox="0 0 44 44" fill="none" xmlns="http://www.w3.org/2000/svg">
<path d="M14.666 38.5H29.3327" stroke="#3445ED" stroke-width="2.75" stroke-linecap="round" stroke-linejoin="round"/>
<path d="M22 31.1666V38.5" stroke="#3445ED" stroke-width="2.75" stroke-linecap="round" stroke-linejoin="round"/>
<path d="M12.834 7.33337H31.1673" stroke="#3445ED" stroke-width="2.75" stroke-linecap="round" stroke-linejoin="round"/>
<path d="M31.1673 7.33337V22C31.1673 24.4312 30.2015 26.7628 28.4825 28.4819C26.7634 30.2009 24.4318 31.1667 22.0007 31.1667C19.5695 31.1667 17.2379 30.2009 15.5188 28.4819C13.7998 26.7628 12.834 24.4312 12.834 22V7.33337" stroke="#3445ED" stroke-width="2.75" stroke-linecap="round" stroke-linejoin="round"/>
<path d="M9.16667 20.1667C11.1917 20.1667 12.8333 18.5251 12.8333 16.5C12.8333 14.475 11.1917 12.8334 9.16667 12.8334C7.14162 12.8334 5.5 14.475 5.5 16.5C5.5 18.5251 7.14162 20.1667 9.16667 20.1667Z" stroke="#3445ED" stroke-width="2.75" stroke-linecap="round" stroke-linejoin="round"/>
<path d="M34.8327 20.1667C36.8577 20.1667 38.4993 18.5251 38.4993 16.5C38.4993 14.475 36.8577 12.8334 34.8327 12.8334C32.8076 12.8334 31.166 14.475 31.166 16.5C31.166 18.5251 32.8076 20.1667 34.8327 20.1667Z" stroke="#3445ED" stroke-width="2.75" stroke-linecap="round" stroke-linejoin="round"/>
</svg>
